PathFileType	4	(X/Y/Z)	Patient4_TMGait_0pt3_02_right_11.trc.trc
DataRate	CameraRate	NumFrames	NumMarkers	Units	OrigDataRate	OrigDataStartFrame	OrigNumFrames
50.179211469534	50.179211469534	4	33	mm	50.179211469534	36	       141
Frame#	Time	Sacral			L.Shoulder			Chest			R.Shoulder			Neck			R.ASIS			L.ASIS			R.Thigh.Superior			R.Thigh.Lateral			R.Thigh.Inferior			R.Patella			L.Thigh.Superior			L.Thigh.Lateral			L.Thigh.Inferior			L.Patella			L.Shank.Superior			L.Shank.Lateral			L.Shank.Inferior			R.Shank.Superior			R.Shank.Lateral			R.Shank.Inferior			R.Heel			R.Midfoot.Superior			R.Midfoot.Lateral			R.Toe			L.Heel			L.Midfoot.Lateral			L.Midfoot.Superior			L.Toe			L.Elbow			L.Wrist			R.Elbow			R.Wrist			
		X1	Y1	Z1	X2	Y2	Z2	X3	Y3	Z3	X4	Y4	Z4	X5	Y5	Z5	X6	Y6	Z6	X7	Y7	Z7	X8	Y8	Z8	X9	Y9	Z9	X10	Y10	Z10	X11	Y11	Z11	X12	Y12	Z12	X13	Y13	Z13	X14	Y14	Z14	X15	Y15	Z15	X16	Y16	Z16	X17	Y17	Z17	X18	Y18	Z18	X19	Y19	Z19	X20	Y20	Z20	X21	Y21	Z21	X22	Y22	Z22	X23	Y23	Z23	X24	Y24	Z24	X25	Y25	Z25	X26	Y26	Z26	X27	Y27	Z27	X28	Y28	Z28	X29	Y29	Z29	X30	Y30	Z30	X31	Y31	Z31	X32	Y32	Z32	X33	Y33	Z33	

36	21.127500000000	744.785482605065	1001.998553162664	481.723005442032	971.392266361366	1440.629610743013	379.948008040148	1018.957482966707	1358.122284873841	558.862498739495	886.454890972988	1422.360521354159	703.216356115935	907.324631822461	1491.371001049877	531.853112419178	945.586321436919	938.434871919428	648.078653236657	988.842976901906	959.503467468610	377.579890018301	1013.397186565401	747.950238286139	615.186938850617	938.478534321532	630.082425292866	662.321417334947	1029.652013591363	588.493941064577	589.629086593635	1039.972629448408	499.486939758219	595.547118791994	998.442103671549	727.404840550710	399.702242534572	900.726549158971	622.417335230995	324.395291934700	965.460707814964	531.404475388649	392.628319779401	951.139390735087	452.925507257664	392.427580607334	892.461321126764	395.944525450057	382.007866620098	766.007313823395	329.836673589019	321.853841383754	764.939482735027	203.598355754770	385.313334564867	1013.040655194117	407.915298588276	598.696366806579	940.622796264344	301.344671457500	654.874069157603	990.048534265463	208.593616818090	593.817056166874	861.004194123897	42.197238321122	558.504286782681	1031.695628833276	98.011181534787	596.779449892298	943.822445425167	36.736816721265	634.013716413148	1151.189395911857	49.429791769438	624.083995895964	585.736344937351	96.735249689359	410.269827132281	660.567141247796	69.022577769066	336.953018572675	756.041364134909	107.183142375997	366.997639700719	864.407151736637	35.234942948061	349.404557881620	1130.285155327818	1160.326131517760	220.954651412323	1384.832131824552	1151.928413407296	271.701430457664	737.092553352729	1097.572517928319	759.515794486172	747.717056913634	836.404518895460	774.233212641647	
37	21.147428571429	745.062179660334	1002.906003578008	487.996510104249	969.858358071430	1441.843079926213	383.528384472849	1019.883472767039	1359.232309065811	561.845212471677	889.021978157394	1423.118481853014	707.732396879237	907.701219503439	1492.443849277215	536.090456036855	947.664949557795	939.315251803314	651.910784436905	988.011278540705	960.585702018289	381.258430324936	1013.045549290644	747.159992326617	618.580155308382	936.675842928222	629.976553691786	665.268041941710	1026.802448101879	587.689867232259	591.837215170816	1035.997732286285	498.831718439805	596.963943238186	1002.349936177297	729.896893091714	403.205218045558	907.755432259798	623.018123905703	327.778103146536	975.554631783205	532.878893188429	395.463941094581	962.117947519285	453.021689793779	394.126882516313	901.148135506508	396.778164449693	383.814182597250	772.320097460796	335.396971693471	323.768469794948	767.911960639075	208.350399788453	385.348325216313	1008.842274965262	407.486506490143	599.897800822217	936.417672593696	300.902489935042	655.805917554189	985.042199259500	208.259438685133	594.120260197667	855.316779390916	42.173198954862	558.588815491721	1025.916891333353	97.700431054718	596.629504254920	938.113375415233	36.715114139257	634.087582913025	1145.563181182887	49.017468348746	624.193230111814	585.300229369965	109.306545469995	409.790895787180	658.440319347454	77.385245743818	336.684621441804	755.690076762686	110.218711834956	366.557166354749	859.091460958489	34.092485969206	349.645709491453	1124.529610148351	1157.672816921176	225.349934461582	1379.216880668104	1147.026080592408	275.022741683585	743.489906234725	1096.762891680509	768.447563049853	761.050955964463	836.233275946073	785.014226041519	
38	21.167357142857	745.095373403719	1003.632728676188	494.274363173820	967.903128414359	1442.804188257038	386.659858795321	1020.524162690228	1360.272466415184	564.373322294815	891.440445944876	1423.890870652516	711.853263207082	907.810682972824	1493.390011571286	539.850612820796	949.600294715172	940.076056362292	655.632000220750	986.855126325445	961.508800237806	384.824824855807	1012.632755198848	746.371145123674	621.677041432927	934.985229620434	629.778443130420	668.056981778343	1023.980024158490	586.861664349908	593.785407726151	1032.094091998732	498.117750451878	598.149560656699	1006.510883982694	732.624828202415	406.869748705534	915.593834359174	623.726796123954	331.174313157598	986.400199286699	534.743699793270	398.646716665655	974.006186116398	453.490083241527	396.156624557742	910.850196265935	397.856834849208	385.777109897534	779.846400855987	341.339089362404	325.753279846703	771.863491843412	213.644631835204	385.454280894951	1004.695081889682	407.011595842110	600.917227124234	932.299541225135	300.439651375070	656.643137434736	980.053481128756	207.899414214938	594.311539943739	849.602680627037	42.176040506392	558.631331605566	1020.121459891721	97.396340646792	596.434428724927	932.371245412335	36.708472267573	634.111646521553	1139.904725107346	48.543201925156	624.293485431592	586.096572974862	123.087585256649	409.395450184729	657.182028997875	86.848550331912	336.455408077784	756.037327104895	113.820955912816	366.166658743973	853.904061503509	32.833644946989	349.817457349700	1117.496772859252	1154.120977593114	229.701213078159	1372.425383766169	1140.279818089236	278.153444014678	750.272017509725	1095.892499022691	777.369111705058	774.898778167041	836.216013723669	795.762145730080	
39	21.187285714286	744.902559860574	1004.140480612043	500.526902964152	965.549241157040	1443.467406962990	389.357073829674	1020.857848561533	1361.202894556839	566.465446389860	893.678873253512	1424.655814535041	715.573313954035	907.640955558926	1494.172427091689	543.140571669667	951.380359970263	940.690041183767	659.241317143686	985.395316579244	962.237224578774	388.268691298808	1012.242176232871	745.616030241488	624.494038100076	933.544203544606	629.490387476493	670.713995077679	1021.371673717047	586.030581241104	595.541400058396	1028.496574080179	497.327764264487	599.208054137539	1010.834463674980	735.578999622324	410.705765603702	924.109632576347	624.602154382379	334.582123020936	997.791536415042	537.047615016409	402.193115392847	986.611068182627	454.391327344108	398.540392374927	921.404561671866	399.226946816625	387.905629732641	788.432066509793	347.645464129010	327.854732893528	776.735675369742	219.469922869263	385.697882155445	1000.761740944893	406.468977579069	601.828759988744	928.338318695144	299.969822008934	657.438061759235	975.126035442463	207.506193415987	594.437959442027	843.833924722788	42.207912237606	558.638670436158	1014.306504731553	97.115956715101	596.224871120156	926.572189140331	36.719205819776	634.096513820749	1134.193084612753	48.014133772903	624.378420164196	588.184930072345	137.875094171725	409.222329217417	656.856728638439	97.341208962776	336.355067039953	757.085380740620	118.058741964817	365.867280934688	848.932131882270	31.589366954480	349.858390077058	1109.165711795620	1149.678916617846	234.051604799366	1364.376186553866	1131.490003596306	281.147774451217	757.549316986462	1094.884776479205	786.147648227582	789.359975497258	836.271167868136	806.305421170935	
